<svg width="24" height="24" viewBox="0 0 24 24" fill="none" xmlns="http://www.w3.org/2000/svg">
<path d="M7.01314 10.4997C6.17486 10.4997 6 10.6725 6 11.4996V12.9999C6 13.8279 6.17486 13.9998 7.01314 13.9998H9.03857V20.0001C9.03857 20.8281 9.21429 21 10.0517 21H12.078C12.9163 21 13.0911 20.8272 13.0911 20.0001V13.9998H15.366C16.0011 13.9998 16.1649 13.8783 16.3397 13.2744L16.7743 11.775C17.0734 10.7409 16.8883 10.4997 15.7997 10.4997H13.0911V8.0004C13.0911 7.4478 13.5446 6.9996 14.1034 6.9996H16.9869C17.8251 6.9996 18 6.8277 18 6.0006V3.999C18 3.1719 17.8251 3 16.9869 3H14.1034C11.3066 3 9.03857 5.2383 9.03857 8.0004V10.4997H7.01314Z" stroke="white" stroke-width="1.5" stroke-linecap="round" stroke-linejoin="round"/>
</svg>
