<svg width="24" height="24" viewBox="0 0 24 24" fill="none" xmlns="http://www.w3.org/2000/svg">
<path d="M12.0001 15.8334C13.0167 15.8334 13.9918 15.4295 14.7107 14.7106C15.4295 13.9917 15.8334 13.0167 15.8334 12C15.8334 10.9834 15.4295 10.0083 14.7107 9.28944C13.9918 8.57055 13.0167 8.16669 12.0001 8.16669C10.9834 8.16669 10.0084 8.57055 9.28951 9.28944C8.57062 10.0083 8.16675 10.9834 8.16675 12C8.16675 13.0167 8.57062 13.9917 9.28951 14.7106C10.0084 15.4295 10.9834 15.8334 12.0001 15.8334Z" stroke="white" stroke-width="1.5" stroke-linecap="round" stroke-linejoin="round"/>
<path d="M3.375 15.8333V8.16667C3.375 6.89584 3.87983 5.67706 4.77845 4.77845C5.67706 3.87983 6.89584 3.375 8.16667 3.375H15.8333C17.1042 3.375 18.3229 3.87983 19.2216 4.77845C20.1202 5.67706 20.625 6.89584 20.625 8.16667V15.8333C20.625 17.1042 20.1202 18.3229 19.2216 19.2216C18.3229 20.1202 17.1042 20.625 15.8333 20.625H8.16667C6.89584 20.625 5.67706 20.1202 4.77845 19.2216C3.87983 18.3229 3.375 17.1042 3.375 15.8333Z" stroke="white" stroke-width="1.5"/>
<path d="M17.2708 6.74288L17.2841 6.72821" stroke="white" stroke-width="1.5" stroke-linecap="round" stroke-linejoin="round"/>
</svg>
