<svg width="24" height="24" viewBox="0 0 24 24" fill="none" xmlns="http://www.w3.org/2000/svg">
<path d="M11.9857 15.266L15.0926 18.7984C16.2426 20.1066 16.8186 20.7611 17.4214 20.6011C18.0232 20.442 18.2302 19.5814 18.6432 17.8593L20.9337 8.30661C21.5709 5.65394 21.8891 4.32857 21.1819 3.67403C20.4746 3.01949 19.2489 3.50632 16.7975 4.47903L5.42591 8.99565C3.46516 9.77478 2.48479 10.1639 2.42249 10.8328C2.41516 10.9009 2.41516 10.9697 2.42249 11.0379C2.48287 11.7077 3.46133 12.0997 5.42016 12.8846C6.30662 13.2401 6.75033 13.4184 7.06849 13.7586C7.10427 13.7969 7.13877 13.8365 7.17199 13.8774C7.46524 14.2416 7.58983 14.7207 7.83995 15.6752L8.30858 17.4644C8.55103 18.394 8.67274 18.8598 8.99187 18.923C9.31099 18.9863 9.58795 18.601 10.1428 17.8296L11.9857 15.266ZM11.9857 15.266L11.6819 14.9498C11.335 14.5875 11.1615 14.4074 11.1615 14.1831C11.1615 13.9589 11.334 13.7777 11.6819 13.4164L15.106 9.84761" stroke="white" stroke-width="1.5" stroke-linecap="round" stroke-linejoin="round"/>
</svg>
