<svg width="24" height="24" viewBox="0 0 24 24" fill="none" xmlns="http://www.w3.org/2000/svg">
<path d="M13.0361 10.7657L8.44948 4.33525C8.39629 4.26054 8.326 4.19964 8.24447 4.15763C8.16295 4.11562 8.07256 4.09371 7.98085 4.09375H5.5601C5.45459 4.09389 5.35115 4.12305 5.26111 4.17805C5.17106 4.23305 5.09789 4.31177 5.0496 4.40558C5.00131 4.49939 4.97976 4.60468 4.98732 4.70992C4.99487 4.81516 5.03124 4.9163 5.09244 5.00225L10.9641 13.2343M13.0361 10.7657L18.9078 18.9977C18.969 19.0837 19.0053 19.1848 19.0129 19.2901C19.0204 19.3953 18.9989 19.5006 18.9506 19.5944C18.9023 19.6882 18.8291 19.7669 18.7391 19.8219C18.6491 19.8769 18.5456 19.9061 18.4401 19.9062H16.0194C15.9276 19.9063 15.8373 19.8844 15.7557 19.8424C15.6742 19.8004 15.6039 19.7395 15.5507 19.6647L10.9641 13.2343M13.0361 10.7657L18.6346 4.09375M10.9641 13.2343L5.36556 19.9062" stroke="white" stroke-width="1.5" stroke-linecap="round" stroke-linejoin="round"/>
</svg>
